<svg xmlns="http://www.w3.org/2000/svg" viewBox="0 0 173.74 185.82"><defs><style>.cls-1{fill:#df9718;}.cls-2{opacity:0.46;}.cls-3{fill:#27326a;}.cls-4{fill:#172b7a;}.cls-5{fill:#fdd285;}.cls-6{fill:#f8b227;}</style></defs><g id="Capa_2" data-name="Capa 2"><g id="Capa_1-2" data-name="Capa 1"><circle class="cls-1" cx="89.45" cy="95.34" r="22.99"/><g class="cls-2"><path class="cls-3" d="M132.36,6l-.1,26.48L76.8,32.31q-26.47-.11-38.19,10.07T26.81,74.65l-.31,82.56L0,157.11.34,74.55Q.46,39.32,18.88,22.49t58-16.66Z"/></g><path class="cls-4" d="M132.34.21l-.1,26.48-55.46-.21q-26.47-.11-38.19,10.07T26.79,68.82l-.31,82.56L0,151.28.31,68.72q.14-35.23,18.55-52T76.88,0Z"/><path class="cls-5" d="M35.11,185.6l.1-26.47,55.46.21q26.47.09,38.19-10.07T140.66,117L141,34.43l26.47.11-.31,82.56q-.13,35.24-18.55,52.05t-58,16.66Z"/><path class="cls-6" d="M41.4,185.6l.1-26.48,55.46.22q26.48.09,38.19-10.07T147,117l.31-82.56,26.48.11-.31,82.56q-.13,35.24-18.55,52.05t-58,16.66Z"/></g></g></svg>